<svg width="434" height="143" viewBox="0 0 434 143" fill="none" xmlns="http://www.w3.org/2000/svg">
<g filter="url(#filter0_d_1_543)">
<path d="M76.3248 66.658H71.8268V84H76.3248V76.486L82.2008 84H88.0248L80.5108 74.874L87.4008 66.658H81.8368L76.3248 73.808V66.658ZM111.184 84V66.658H95.9479V84H100.446V70.506H106.66V84H111.184ZM124.667 66.658H114.813V84H124.667V80.178H119.311V77.188H124.381V73.366H119.311V70.48H124.667V66.658ZM134.866 78.254C136.218 78.254 137.83 78.072 139.182 76.746C140.534 75.42 140.716 73.808 140.716 72.43C140.716 70.974 140.456 69.518 139.104 68.218C137.778 66.944 136.218 66.658 134.71 66.658H127.534V84H132.032V78.254H134.866ZM132.032 70.298H133.566C134.138 70.298 134.97 70.376 135.49 70.922C135.958 71.39 136.01 72.014 136.01 72.482C136.01 72.898 135.984 73.6 135.438 74.068C134.892 74.562 134.008 74.614 133.54 74.614H132.032V70.298ZM150.326 84C152.458 84 154.096 83.324 155.032 82.362C155.682 81.712 156.306 80.594 156.306 78.956C156.306 77.578 155.838 76.46 155.136 75.784C154.59 75.264 153.68 74.848 152.77 74.744C153.42 74.458 153.81 74.068 154.174 73.392C154.538 72.664 154.668 72.014 154.668 71.26C154.668 69.726 154.2 68.66 153.602 68.01C152.536 66.84 151.054 66.658 149.806 66.658H143.098V84H150.326ZM147.596 70.116H148.428C149.312 70.116 149.858 70.35 150.144 70.636C150.404 70.922 150.56 71.364 150.56 71.806C150.56 72.196 150.43 72.664 150.144 72.95C149.676 73.444 148.896 73.496 148.428 73.496H147.596V70.116ZM147.596 76.85H148.532C149.65 76.85 150.768 76.876 151.314 77.422C151.574 77.682 151.756 78.124 151.756 78.67C151.756 79.164 151.6 79.554 151.392 79.788C150.898 80.36 149.858 80.49 148.61 80.49H147.596V76.85ZM177.527 75.342C177.527 73.028 176.643 70.584 174.797 68.842C173.029 67.152 170.533 66.268 167.959 66.268C165.385 66.268 162.889 67.152 161.121 68.842C159.275 70.584 158.391 73.028 158.391 75.342C158.391 77.63 159.275 80.048 161.121 81.816C162.889 83.506 165.385 84.39 167.959 84.39C170.533 84.39 173.029 83.506 174.797 81.816C176.643 80.048 177.527 77.63 177.527 75.342ZM167.959 70.636C169.155 70.636 170.481 71.104 171.443 72.014C172.249 72.794 172.847 73.99 172.847 75.342C172.847 76.668 172.249 77.864 171.443 78.67C170.637 79.476 169.493 80.022 167.959 80.022C166.451 80.022 165.281 79.45 164.449 78.644C163.799 78.02 163.071 76.954 163.071 75.42C163.071 74.198 163.513 72.924 164.449 72.014C165.385 71.078 166.711 70.636 167.959 70.636ZM184.089 84L185.571 74.016L189.575 84H191.369L195.555 74.016L196.829 84H201.327L198.727 66.658H194.229L190.511 75.914L187.001 66.658H182.555L179.617 84H184.089ZM202.368 66.658L208.27 79.138L205.852 84H210.61L218.41 66.658H213.6L210.714 74.38L207.412 66.658H202.368ZM228.25 66.658V73.782C228.25 76.252 228.042 78.124 226.742 79.476C226.092 80.152 225.442 80.412 224.766 80.516V87.9H228.822V84H239.378V87.9H243.434V80.516H241.354V66.658H228.25ZM232.618 70.142H236.83V80.516H230.694C231.422 79.762 231.89 78.956 232.202 77.864C232.566 76.564 232.618 75.056 232.618 74.224V70.142ZM255.632 66.658H245.778V84H255.632V80.178H250.276V77.188H255.346V73.366H250.276V70.48H255.632V66.658ZM273.735 84V66.658H258.499V84H262.997V70.506H269.211V84H273.735ZM295.72 75.342C295.72 73.028 294.836 70.584 292.99 68.842C291.222 67.152 288.726 66.268 286.152 66.268C283.578 66.268 281.082 67.152 279.314 68.842C277.468 70.584 276.584 73.028 276.584 75.342C276.584 77.63 277.468 80.048 279.314 81.816C281.082 83.506 283.578 84.39 286.152 84.39C288.726 84.39 291.222 83.506 292.99 81.816C294.836 80.048 295.72 77.63 295.72 75.342ZM286.152 70.636C287.348 70.636 288.674 71.104 289.636 72.014C290.442 72.794 291.04 73.99 291.04 75.342C291.04 76.668 290.442 77.864 289.636 78.67C288.83 79.476 287.686 80.022 286.152 80.022C284.644 80.022 283.474 79.45 282.642 78.644C281.992 78.02 281.264 76.954 281.264 75.42C281.264 74.198 281.706 72.924 282.642 72.014C283.578 71.078 284.904 70.636 286.152 70.636ZM299.516 71.442C299.88 71.13 300.452 70.714 300.946 70.48C301.83 70.038 302.636 70.012 302.974 70.012C303.572 70.012 304.196 70.142 304.638 70.454C305.028 70.74 305.314 71.182 305.314 71.676C305.314 72.04 305.184 72.456 304.872 72.768C304.274 73.366 303.026 73.496 302.168 73.496H301.05V76.98H302.74C303.962 76.98 304.56 77.188 304.872 77.396C305.366 77.708 305.652 78.176 305.652 78.696C305.652 79.268 305.366 79.814 304.846 80.126C304.352 80.438 303.572 80.568 302.948 80.568C302.142 80.568 301.414 80.412 300.608 79.996C299.984 79.658 299.334 79.164 298.788 78.54L296.5 81.816C297.28 82.518 298.294 83.194 299.36 83.636C300.738 84.208 302.09 84.39 303.546 84.39C304.872 84.39 306.9 84.26 308.434 83.194C309.76 82.284 310.592 80.776 310.592 79.06C310.592 77.604 309.89 76.668 309.344 76.148C308.824 75.654 308.096 75.264 307.42 75.056V74.978C308.018 74.692 308.564 74.276 309.032 73.6C309.578 72.82 309.786 72.04 309.786 71.104C309.786 69.83 309.448 68.738 308.486 67.828C307.706 67.074 306.328 66.268 303.832 66.268C302.558 66.268 301.44 66.45 300.166 66.918C299.36 67.23 298.58 67.594 297.774 68.14L299.516 71.442ZM313.444 66.658V84H318.046L324.546 73.08V84H329.07V66.658H324.468L317.968 77.578V66.658H313.444ZM342.96 70.48V66.658H331.078V70.48H334.77V84H339.268V70.48H342.96ZM343.794 66.658L349.696 79.138L347.278 84H352.036L359.836 66.658H355.026L352.14 74.38L348.838 66.658H343.794Z" fill="white"/>
</g>
<g filter="url(#filter1_d_1_543)">
<path d="M185.982 120.658H181.484V138H185.982V130.98H192.482V138H197.006V120.658H192.482V127.132H185.982V120.658ZM219.01 129.342C219.01 127.028 218.126 124.584 216.28 122.842C214.512 121.152 212.016 120.268 209.442 120.268C206.868 120.268 204.372 121.152 202.604 122.842C200.758 124.584 199.874 127.028 199.874 129.342C199.874 131.63 200.758 134.048 202.604 135.816C204.372 137.506 206.868 138.39 209.442 138.39C212.016 138.39 214.512 137.506 216.28 135.816C218.126 134.048 219.01 131.63 219.01 129.342ZM209.442 124.636C210.638 124.636 211.964 125.104 212.926 126.014C213.732 126.794 214.33 127.99 214.33 129.342C214.33 130.668 213.732 131.864 212.926 132.67C212.12 133.476 210.976 134.022 209.442 134.022C207.934 134.022 206.764 133.45 205.932 132.644C205.282 132.02 204.554 130.954 204.554 129.42C204.554 128.198 204.996 126.924 205.932 126.014C206.868 125.078 208.194 124.636 209.442 124.636ZM229.109 138C231.241 138 232.879 137.324 233.815 136.362C234.465 135.712 235.089 134.594 235.089 132.956C235.089 131.578 234.621 130.46 233.919 129.784C233.373 129.264 232.463 128.848 231.553 128.744C232.203 128.458 232.593 128.068 232.957 127.392C233.321 126.664 233.451 126.014 233.451 125.26C233.451 123.726 232.983 122.66 232.385 122.01C231.319 120.84 229.837 120.658 228.589 120.658H221.881V138H229.109ZM226.379 124.116H227.211C228.095 124.116 228.641 124.35 228.927 124.636C229.187 124.922 229.343 125.364 229.343 125.806C229.343 126.196 229.213 126.664 228.927 126.95C228.459 127.444 227.679 127.496 227.211 127.496H226.379V124.116ZM226.379 130.85H227.315C228.433 130.85 229.551 130.876 230.097 131.422C230.357 131.682 230.539 132.124 230.539 132.67C230.539 133.164 230.383 133.554 230.175 133.788C229.681 134.36 228.641 134.49 227.393 134.49H226.379V130.85ZM252.643 138H257.167V120.658H252.643V138ZM237.953 138H244.401C246.143 138 248.431 137.844 249.913 136.336C251.005 135.218 251.213 133.866 251.213 132.696C251.213 131.682 251.031 130.2 249.835 129.03C248.301 127.522 246.039 127.418 244.661 127.418H242.477V120.658H237.953V138ZM242.477 134.516V130.902H244.219C244.869 130.902 245.649 130.954 246.143 131.422C246.403 131.656 246.637 132.046 246.637 132.696C246.637 133.242 246.455 133.71 246.169 133.996C245.649 134.516 244.713 134.516 244.219 134.516H242.477ZM264.496 138L265.978 128.016L269.982 138H271.776L275.962 128.016L277.236 138H281.734L279.134 120.658H274.636L270.918 129.914L267.408 120.658H262.962L260.024 138H264.496ZM290.664 120.658V138H295.266L301.766 127.08V138H306.29V120.658H301.688L295.188 131.578V120.658H290.664ZM320.075 120.658H309.935V138H314.433V124.48H320.075V120.658ZM330.09 132.254C331.442 132.254 333.054 132.072 334.406 130.746C335.758 129.42 335.94 127.808 335.94 126.43C335.94 124.974 335.68 123.518 334.328 122.218C333.002 120.944 331.442 120.658 329.934 120.658H322.758V138H327.256V132.254H330.09ZM327.256 124.298H328.79C329.362 124.298 330.194 124.376 330.714 124.922C331.182 125.39 331.234 126.014 331.234 126.482C331.234 126.898 331.208 127.6 330.662 128.068C330.116 128.562 329.232 128.614 328.764 128.614H327.256V124.298ZM356.678 129.342C356.678 127.028 355.794 124.584 353.948 122.842C352.18 121.152 349.684 120.268 347.11 120.268C344.536 120.268 342.04 121.152 340.272 122.842C338.426 124.584 337.542 127.028 337.542 129.342C337.542 131.63 338.426 134.048 340.272 135.816C342.04 137.506 344.536 138.39 347.11 138.39C349.684 138.39 352.18 137.506 353.948 135.816C355.794 134.048 356.678 131.63 356.678 129.342ZM347.11 124.636C348.306 124.636 349.632 125.104 350.594 126.014C351.4 126.794 351.998 127.99 351.998 129.342C351.998 130.668 351.4 131.864 350.594 132.67C349.788 133.476 348.644 134.022 347.11 134.022C345.602 134.022 344.432 133.45 343.6 132.644C342.95 132.02 342.222 130.954 342.222 129.42C342.222 128.198 342.664 126.924 343.6 126.014C344.536 125.078 345.862 124.636 347.11 124.636ZM364.047 120.658H359.549V138H364.047V130.486L369.923 138H375.747L368.233 128.874L375.123 120.658H369.559L364.047 127.808V120.658ZM389.554 138H394.364L387.838 120.658H382.924L376.268 138H381.026L382.196 135.088H388.488L389.554 138ZM383.444 131.656L385.342 126.04L387.292 131.656H383.444ZM400.057 138L401.539 128.016L405.543 138H407.337L411.523 128.016L412.797 138H417.295L414.695 120.658H410.197L406.479 129.914L402.969 120.658H398.523L395.585 138H400.057Z" fill="white"/>
</g>
<g filter="url(#filter2_d_1_543)">
<path d="M186.289 48H197.361V5.312H180.209V14.72H186.289V48ZM237.592 38.592H223.64L230.808 31.936C234.648 28.352 237.144 24.64 237.144 19.264C237.144 13.76 234.712 10.496 232.984 8.768C231.064 6.848 227.352 4.352 220.952 4.352C215.64 4.352 211.736 6.08 208.856 8.96C206.616 11.2 204.184 15.232 204.12 20.8H215.576C215.64 19.328 216.088 16.896 217.112 15.552C217.816 14.656 219.032 13.824 220.824 13.824C222.232 13.824 223.32 14.4 223.96 15.104C225.24 16.512 225.24 18.752 225.24 19.2C225.24 21.952 224.088 24.064 222.936 25.856C220.888 29.12 218.008 32.64 214.168 36.672L203.352 48H237.592V38.592ZM259.263 14.272C260.543 14.272 261.823 14.848 262.655 15.616C264.895 17.6 266.367 23.04 266.367 26.816C266.367 30.464 265.023 35.84 262.655 37.888C261.823 38.656 260.543 39.232 259.263 39.232C257.983 39.232 256.703 38.656 255.871 37.888C253.375 35.712 252.159 30.144 252.159 26.752C252.159 22.784 253.567 17.6 255.871 15.616C256.703 14.848 257.983 14.272 259.263 14.272ZM277.375 26.688C277.375 19.136 274.879 12.992 271.039 9.216C267.711 5.952 263.423 4.352 259.263 4.352C255.103 4.352 250.815 5.952 247.487 9.216C243.647 12.992 241.151 19.136 241.151 26.688C241.151 34.176 243.647 40.32 247.487 44.096C250.815 47.36 255.103 48.96 259.263 48.96C263.423 48.96 267.711 47.36 271.039 44.096C274.879 40.32 277.375 34.176 277.375 26.688ZM292.134 25.792C294.885 25.792 298.47 25.216 301.158 22.4C302.63 20.864 303.91 18.56 303.91 15.296C303.91 11.84 302.502 9.6 301.222 8.256C299.494 6.464 296.742 4.864 292.134 4.864C289.702 4.864 285.862 5.248 283.174 8.256C281.51 10.048 280.549 12.736 280.549 15.488C280.549 18.112 281.382 20.416 283.238 22.4C285.926 25.216 289.19 25.792 292.134 25.792ZM291.942 48H297.446L322.214 5.312H316.646L291.942 48ZM292.262 10.496C293.478 10.496 294.566 10.816 295.526 11.712C296.55 12.672 297.062 14.016 297.062 15.296C297.062 16.64 296.486 17.92 295.654 18.752C294.822 19.52 293.542 20.096 292.262 20.096C290.982 20.096 289.894 19.648 289.126 18.944C288.166 18.112 287.462 16.768 287.462 15.296C287.462 14.08 287.91 12.864 288.742 11.968C289.51 11.136 290.79 10.496 292.262 10.496ZM321.958 33.216C323.174 33.216 324.262 33.536 325.222 34.432C326.246 35.392 326.758 36.736 326.758 38.016C326.758 39.36 326.182 40.64 325.35 41.472C324.518 42.24 323.238 42.816 321.958 42.816C320.678 42.816 319.59 42.368 318.822 41.664C317.862 40.832 317.158 39.488 317.158 38.016C317.158 36.8 317.606 35.584 318.438 34.688C319.206 33.856 320.486 33.216 321.958 33.216ZM321.83 48.512C324.582 48.512 328.166 47.936 330.854 45.12C332.326 43.584 333.606 41.28 333.606 38.016C333.606 34.56 332.198 32.32 330.918 30.976C329.19 29.184 326.438 27.584 321.83 27.584C319.398 27.584 315.558 27.968 312.87 30.976C311.206 32.768 310.246 35.456 310.246 38.208C310.246 40.832 311.078 43.136 312.934 45.12C315.622 47.936 318.886 48.512 321.83 48.512Z" fill="white"/>
</g>
<g filter="url(#filter3_d_1_543)">
<path d="M25.8128 126.378V138H29.4788L34.0288 131.864V138H38.1888V126.378H34.5748L29.9728 132.358V126.378H25.8128Z" fill="white"/>
</g>
<g filter="url(#filter4_d_1_543)">
<path d="M77.175 95.312H54.967L51.255 118.288C53.559 117.136 56.119 116.496 59.127 116.496C60.535 116.496 64.503 116.56 66.807 118.608C67.767 119.44 68.855 120.976 68.855 123.216C68.855 125.008 68.151 126.544 67.191 127.568C65.911 128.912 63.863 129.68 61.623 129.68C59.511 129.68 57.143 129.104 55.223 128.208C54.519 127.888 52.343 126.8 50.103 124.752L48.439 135.12C51.895 137.296 56.375 138.96 62.839 138.96C66.935 138.96 72.183 138.256 76.151 134.16C78.199 132.048 80.247 128.592 80.247 123.472C80.247 118.544 78.263 115.28 76.343 113.36C74.359 111.312 70.775 109.136 65.079 109.136C64.503 109.136 63.223 109.2 61.623 109.456L62.391 104.72H77.175V95.312ZM103.07 104.272C104.35 104.272 105.63 104.848 106.462 105.616C108.702 107.6 110.174 113.04 110.174 116.816C110.174 120.464 108.83 125.84 106.462 127.888C105.63 128.656 104.35 129.232 103.07 129.232C101.79 129.232 100.51 128.656 99.678 127.888C97.182 125.712 95.966 120.144 95.966 116.752C95.966 112.784 97.374 107.6 99.678 105.616C100.51 104.848 101.79 104.272 103.07 104.272ZM121.182 116.688C121.182 109.136 118.686 102.992 114.846 99.216C111.518 95.952 107.23 94.352 103.07 94.352C98.91 94.352 94.622 95.952 91.294 99.216C87.454 102.992 84.958 109.136 84.958 116.688C84.958 124.176 87.454 130.32 91.294 134.096C94.622 137.36 98.91 138.96 103.07 138.96C107.23 138.96 111.518 137.36 114.846 134.096C118.686 130.32 121.182 124.176 121.182 116.688ZM143.941 117.776V109.392H136.773V105.36C136.773 103.952 136.837 101.776 137.925 100.56C138.373 100.048 139.269 99.472 140.805 99.472C141.381 99.472 142.597 99.6 144.005 100.432V91.6C142.533 91.024 140.997 90.64 139.077 90.64C135.685 90.64 131.781 91.664 129.157 95.184C126.853 98.256 126.533 101.52 126.533 104.592V109.392H122.949V117.776H126.533V138H136.773V117.776H143.941ZM146.035 135.632C150.963 138.64 154.995 138.96 157.555 138.96C159.923 138.96 164.787 138.704 168.115 135.376C169.523 134.032 170.995 131.728 170.995 128.272C170.995 126.16 170.227 123.92 168.819 122.576C167.987 121.744 165.939 120.72 164.595 120.336L162.739 119.824C161.139 119.376 160.307 119.376 159.347 118.992C158.707 118.736 158.131 118.288 158.131 117.392C158.131 116.752 158.451 116.304 159.027 115.984C159.667 115.6 160.371 115.408 161.395 115.408C163.251 115.408 165.363 116.176 166.771 116.816L170.227 110.288C168.563 109.584 165.299 108.432 161.075 108.432C156.851 108.432 153.011 109.648 150.835 111.888C149.235 113.552 148.147 116.112 148.147 118.864C148.147 121.04 148.915 122.64 150.003 123.792C151.539 125.456 153.587 125.968 154.995 126.288L157.683 126.928C158.707 127.184 159.731 127.376 160.371 127.952C160.819 128.336 160.883 128.784 160.883 129.232C160.883 129.744 160.819 130.128 160.371 130.576C159.731 131.152 158.515 131.344 157.747 131.344C156.659 131.344 155.059 131.088 153.779 130.64C152.371 130.192 150.899 129.424 149.683 128.528L146.035 135.632Z" fill="white"/>
</g>
<defs>
<filter id="filter0_d_1_543" x="69.8268" y="66.268" width="292.009" height="25.632" filterUnits="userSpaceOnUse" color-interpolation-filters="sRGB">
<feFlood flood-opacity="0" result="BackgroundImageFix"/>
<feColorMatrix in="SourceAlpha" type="matrix" values="0 0 0 0 0 0 0 0 0 0 0 0 0 0 0 0 0 0 127 0" result="hardAlpha"/>
<feOffset dy="2"/>
<feGaussianBlur stdDeviation="1"/>
<feComposite in2="hardAlpha" operator="out"/>
<feColorMatrix type="matrix" values="0 0 0 0 0 0 0 0 0 0 0 0 0 0 0 0 0 0 0.25 0"/>
<feBlend mode="normal" in2="BackgroundImageFix" result="effect1_dropShadow_1_543"/>
<feBlend mode="normal" in="SourceGraphic" in2="effect1_dropShadow_1_543" result="shape"/>
</filter>
<filter id="filter1_d_1_543" x="179.484" y="120.268" width="239.811" height="22.122" filterUnits="userSpaceOnUse" color-interpolation-filters="sRGB">
<feFlood flood-opacity="0" result="BackgroundImageFix"/>
<feColorMatrix in="SourceAlpha" type="matrix" values="0 0 0 0 0 0 0 0 0 0 0 0 0 0 0 0 0 0 127 0" result="hardAlpha"/>
<feOffset dy="2"/>
<feGaussianBlur stdDeviation="1"/>
<feComposite in2="hardAlpha" operator="out"/>
<feColorMatrix type="matrix" values="0 0 0 0 0 0 0 0 0 0 0 0 0 0 0 0 0 0 0.25 0"/>
<feBlend mode="normal" in2="BackgroundImageFix" result="effect1_dropShadow_1_543"/>
<feBlend mode="normal" in="SourceGraphic" in2="effect1_dropShadow_1_543" result="shape"/>
</filter>
<filter id="filter2_d_1_543" x="178.208" y="4.35199" width="157.397" height="48.608" filterUnits="userSpaceOnUse" color-interpolation-filters="sRGB">
<feFlood flood-opacity="0" result="BackgroundImageFix"/>
<feColorMatrix in="SourceAlpha" type="matrix" values="0 0 0 0 0 0 0 0 0 0 0 0 0 0 0 0 0 0 127 0" result="hardAlpha"/>
<feOffset dy="2"/>
<feGaussianBlur stdDeviation="1"/>
<feComposite in2="hardAlpha" operator="out"/>
<feColorMatrix type="matrix" values="0 0 0 0 0 0 0 0 0 0 0 0 0 0 0 0 0 0 0.25 0"/>
<feBlend mode="normal" in2="BackgroundImageFix" result="effect1_dropShadow_1_543"/>
<feBlend mode="normal" in="SourceGraphic" in2="effect1_dropShadow_1_543" result="shape"/>
</filter>
<filter id="filter3_d_1_543" x="23.8129" y="126.378" width="16.376" height="15.622" filterUnits="userSpaceOnUse" color-interpolation-filters="sRGB">
<feFlood flood-opacity="0" result="BackgroundImageFix"/>
<feColorMatrix in="SourceAlpha" type="matrix" values="0 0 0 0 0 0 0 0 0 0 0 0 0 0 0 0 0 0 127 0" result="hardAlpha"/>
<feOffset dy="2"/>
<feGaussianBlur stdDeviation="1"/>
<feComposite in2="hardAlpha" operator="out"/>
<feColorMatrix type="matrix" values="0 0 0 0 0 0 0 0 0 0 0 0 0 0 0 0 0 0 0.25 0"/>
<feBlend mode="normal" in2="BackgroundImageFix" result="effect1_dropShadow_1_543"/>
<feBlend mode="normal" in="SourceGraphic" in2="effect1_dropShadow_1_543" result="shape"/>
</filter>
<filter id="filter4_d_1_543" x="46.439" y="90.64" width="126.557" height="52.32" filterUnits="userSpaceOnUse" color-interpolation-filters="sRGB">
<feFlood flood-opacity="0" result="BackgroundImageFix"/>
<feColorMatrix in="SourceAlpha" type="matrix" values="0 0 0 0 0 0 0 0 0 0 0 0 0 0 0 0 0 0 127 0" result="hardAlpha"/>
<feOffset dy="2"/>
<feGaussianBlur stdDeviation="1"/>
<feComposite in2="hardAlpha" operator="out"/>
<feColorMatrix type="matrix" values="0 0 0 0 0 0 0 0 0 0 0 0 0 0 0 0 0 0 0.25 0"/>
<feBlend mode="normal" in2="BackgroundImageFix" result="effect1_dropShadow_1_543"/>
<feBlend mode="normal" in="SourceGraphic" in2="effect1_dropShadow_1_543" result="shape"/>
</filter>
</defs>
</svg>
