<svg width="446" height="175" viewBox="0 0 446 175" fill="none" xmlns="http://www.w3.org/2000/svg">
<g filter="url(#filter0_d_1_557)">
<path d="M127.554 162.661C126.854 162.782 125.603 162.803 123.794 162.715C121.986 162.633 119.498 162.023 116.343 160.892C105.418 157.117 88.9313 143.394 66.8972 119.709C62.4986 114.877 58.807 110.946 55.8224 107.91C52.8379 104.874 51.179 103.383 50.8527 103.444C50.7099 103.851 50.2544 106.107 49.4794 110.221C48.7043 114.334 47.8001 119.343 46.7736 125.252C44.3805 139.484 42.4225 146.979 40.9132 147.751C40.0498 148.368 39.3088 148.727 38.6969 148.836C37.6703 149.012 37.0381 148.409 36.7933 147.019C36.3718 144.607 37.1264 137.274 39.064 125.022C40.043 118.577 40.8452 113.176 41.4707 108.811C42.0214 104.759 42.2525 102.461 42.1574 101.933L42.1438 101.872L42.0826 101.885C41.797 101.933 40.852 102.522 39.2544 103.64C37.6567 104.765 35.6511 106.25 33.2309 108.106C27.4657 112.776 22.7747 115.432 19.1715 116.063C16.7104 116.489 14.8136 115.771 13.4675 113.901C12.7537 112.722 12.2914 111.556 12.0942 110.417C11.8019 108.743 12.1894 106.873 13.2636 104.813C14.3377 102.753 16.3637 100.713 19.3483 98.6934C22.3328 96.6806 25.3854 95.0067 28.5059 93.6785C31.6264 92.3502 34.1215 91.4624 35.9843 91.0084L37.6227 90.595C40.1178 90.1206 41.9738 89.3955 43.1975 88.4196C44.4213 87.4505 45.4478 85.37 46.2841 82.1984C47.3718 77.8408 48.6975 71.2063 50.2612 62.3014C51.2742 56.5275 52.09 52.3055 52.7223 49.649C53.3545 46.9924 54.0412 45.2169 54.7958 44.3291C55.5437 43.4413 56.9238 42.8178 58.9361 42.4654C59.8811 42.3028 60.5746 42.4112 61.0233 42.7975C61.2748 43.0483 61.4584 43.4616 61.5604 44.0309C61.7099 44.8916 61.642 46.4299 61.3564 48.646C61.0709 50.862 60.3095 54.9417 59.0789 60.885C58.1271 65.0935 57.4065 68.6514 56.9034 71.5587C56.4683 74.1203 56.2983 75.6858 56.4003 76.255L56.4615 76.2415C56.9102 76.1602 58.8886 74.3033 62.383 70.6573C65.8775 67.0114 69.9362 62.5996 74.5592 57.4085C86.2731 44.2884 95.5327 32.4763 102.345 21.9789C104.955 17.6078 107.063 14.8157 108.667 13.6094C109.3 13.1215 109.966 12.8165 110.659 12.6945C111.604 12.5319 112.59 12.7352 113.617 13.3112C114.344 13.6026 114.779 14.138 114.915 14.9173C115.065 15.778 114.677 17.2757 113.746 19.4172C112.815 21.5587 110.034 25.7943 105.404 32.1171C95.1452 46.2876 82.731 60.946 68.1618 76.0856C62.8453 81.6495 57.5356 87.1252 52.2396 92.5128L58.1407 97.6091C61.9343 100.943 68.8416 108.012 78.8491 118.807C90.6445 131.602 100.421 141.002 108.171 146.992C115.922 152.983 122.509 156.161 127.935 156.514C129.797 156.778 131.007 157.429 131.572 158.466L131.701 158.825C131.789 159.313 131.599 159.916 131.13 160.627C130.307 161.698 129.111 162.369 127.554 162.64V162.661ZM24.4812 105.47C24.7667 105.423 25.1474 105.26 25.6301 104.989C26.1128 104.718 26.6567 104.325 27.2618 103.817C27.8668 103.308 28.3631 102.827 28.7506 102.36C29.1314 101.892 29.3149 101.601 29.2945 101.479C29.2741 101.357 29.077 101.33 28.7098 101.391C28.5059 101.424 28.1524 101.54 27.6629 101.729C27.1666 101.919 26.5683 102.224 25.8613 102.644C25.1542 103.064 24.6851 103.464 24.454 103.837C24.114 104.528 23.9645 104.996 24.0053 105.24C24.0392 105.443 24.2024 105.524 24.4879 105.47H24.4812Z" fill="white"/>
<path d="M132.7 117.743C129.668 118.272 126.894 118.17 124.379 117.431C121.863 116.693 119.892 115.161 118.471 112.844C117.186 110.587 116.091 107.239 115.187 102.807C114.405 103.403 113.392 104.386 112.155 105.735C111.122 106.839 109.973 107.991 108.708 109.177C107.437 110.37 106.064 111.441 104.588 112.396C103.106 113.352 101.57 113.968 99.9721 114.246C97.6334 114.653 95.3763 114.165 93.1872 112.783C91.4944 111.563 90.4882 110.038 90.1618 108.195C89.7471 105.829 90.1618 103.227 91.4196 100.394C92.6773 97.5616 94.1798 94.9661 95.9406 92.5941C97.7014 90.2222 99.2379 88.4874 100.57 87.3963C101.896 86.2984 103.426 85.3835 105.153 84.6381C106.879 83.8926 108.586 83.3776 110.265 83.0794C111.985 82.7812 113.542 82.7609 114.943 83.0184C116.336 83.2759 117.186 83.9943 117.472 85.1667C117.608 85.946 117.308 86.5966 116.581 87.1252C115.847 87.6538 114.521 88.2095 112.597 88.7991C110.286 89.5852 108.11 91.0761 106.07 93.2854C104.031 95.4947 102.392 97.7581 101.155 100.083C99.9177 102.407 99.3807 104.054 99.5574 105.037C99.6458 105.524 99.9517 105.728 100.489 105.633C101.311 105.491 102.379 104.799 103.705 103.552C105.03 102.312 106.478 100.882 108.049 99.2558C110.034 97.1008 112.067 95.0881 114.147 93.2312C116.227 91.3743 118.09 90.2968 119.729 90.0121C121.979 89.6191 123.434 91.2591 124.08 94.9322C124.257 95.9555 124.386 97.155 124.46 98.5307C124.528 100.117 124.671 101.526 124.889 102.753C125.399 105.653 126.337 107.68 127.703 108.832C129.07 109.984 131.021 110.336 133.557 109.889L133.985 109.814C140.831 108.154 147.977 104.596 155.421 99.1474C162.865 93.6988 168.998 88.2366 173.825 82.7609L175.715 80.538C177.571 78.3627 178.998 76.7769 180.011 75.7739C181.018 74.7777 182.037 74.1881 183.057 74.0119C183.71 73.8967 184.458 73.917 185.287 74.0661C185.946 74.2016 186.327 74.5608 186.422 75.1301C186.518 75.6993 186.334 76.4312 185.858 77.3122C178.638 87.6267 170.609 96.2537 161.778 103.186C152.946 110.119 144.197 114.768 135.528 117.127C134.556 117.377 133.625 117.587 132.721 117.743H132.7Z" fill="white"/>
<path d="M178.155 156.399C177.421 156.527 176.721 156.521 176.061 156.385C175.402 156.25 174.681 155.972 173.893 155.565C172.621 154.82 171.88 153.851 171.67 152.671C171.173 149.852 171.738 144.783 173.362 137.471C174.382 133.167 175.545 128.756 176.857 124.229C178.176 119.702 179.243 115.825 180.066 112.586C180.888 109.347 181.323 107.51 181.378 107.083C181.33 106.799 181.024 106.616 180.46 106.548C179.903 106.48 179.216 106.446 178.42 106.466C177.401 106.433 176.333 106.351 175.205 106.209C174.083 106.067 173.09 105.762 172.22 105.281C171.357 104.799 170.82 103.986 170.623 102.848C170.323 101.133 182.357 92.7161 185.233 85.309C188.496 76.9937 180.045 75.8552 181.357 74.1949C181.881 73.5578 182.615 73.4969 183.125 73.0631C192.432 65.0664 198.218 74.7709 193.357 86.068C190.209 93.3938 184.512 96.6467 185.81 96.5925C189.421 96.7213 191.474 98.1919 191.97 101.011C192.276 102.766 191.997 105.389 191.134 108.859C189.652 115.093 187.823 121.836 185.634 129.081C184.655 132.408 183.866 135.336 183.254 137.864C182.642 140.392 182.364 141.815 182.425 142.147L182.5 142.201C182.744 142.16 183.601 141.069 185.063 138.941C186.524 136.813 188.278 134.116 190.325 130.85C198.184 118.401 206.675 105.463 215.806 92.0384C227.893 74.344 234.699 65.3646 236.215 65.1003C236.908 64.9783 237.595 65.1342 238.261 65.5611C238.927 65.9948 239.335 66.6386 239.492 67.4925C239.635 68.3125 239.424 69.2681 238.86 70.3795C236.371 74.7303 231.415 82.7473 223.991 94.4239C216.567 106.101 209.211 117.492 201.937 128.593C194.662 139.694 189.992 146.565 187.918 149.202C184.281 153.498 181.031 155.897 178.162 156.399H178.155Z" fill="white"/>
<path d="M350.886 71.2401C346.705 71.972 343.421 69.39 341.035 63.4874C339.933 60.8173 339.22 56.9612 338.866 57.5982C337.465 60.1531 323.753 57.971 321.802 60.7902C319.85 63.6161 322.91 67.3095 321.802 69.4375C320.122 72.6362 318.45 74.3846 316.771 74.676L316.342 74.7506C315.119 74.7506 314.133 74.4863 313.378 73.9441C312.63 73.402 312.141 72.5006 311.917 71.2334L311.828 70.7454C311.203 66.9368 310.931 65.1613 315.642 45.6031C317.362 38.1011 324.691 42.6958 323.821 47.0805C322.944 51.4652 322.543 53.8642 322.617 54.2708L330.361 53.0916C334.053 52.2513 334.712 51.9599 336.738 51.4719C338.302 51.0992 335.127 44.1054 338.431 42.9534C342.612 42.2215 344.461 46.0572 346.582 53.3085C347.16 55.145 347.84 56.907 348.622 58.6012C349.404 60.2955 350.111 61.4814 350.736 62.1455C351.362 62.8165 352.184 63.0604 353.211 62.8774C355.339 62.5047 358.235 60.4716 361.893 56.7782C365.55 53.0848 369.31 48.7544 373.165 43.7869L374.198 42.4654C375.184 41.3676 376.238 40.717 377.339 40.5272C378.202 40.3781 378.923 40.4188 379.514 40.6492C379.746 40.778 379.888 40.961 379.929 41.2117C380.018 41.6996 379.786 42.54 379.236 43.7327C378.236 45.9691 376.21 49.2084 373.151 53.4508C368.834 59.3873 364.395 63.9482 359.846 67.1469C356.569 69.4036 353.578 70.7725 350.872 71.2401H350.886Z" fill="white"/>
<path d="M378.393 68.4345C376.761 68.7191 375.143 68.6853 373.552 68.3261C371.961 67.9737 370.438 67.1469 368.984 65.8525C367.529 64.5649 366.631 62.9723 366.298 61.0748C365.428 56.1412 368.093 49.1339 374.286 40.0596C376.258 37.0371 378.209 34.2383 380.126 31.6766C383.519 27.1293 385.789 24.7574 386.938 24.5609C387.469 24.466 388.047 24.649 388.679 25.1098C389.304 25.5706 390.168 26.3161 391.262 27.353C391.643 27.6986 391.867 28.0645 391.935 28.4644C392.065 29.2166 391.847 30.0502 391.283 30.965C390.984 31.6088 390.793 32.2052 390.712 32.7677C393.839 36.5357 397.673 38.0198 402.228 37.2269C404.921 36.7525 407.647 35.6682 410.4 33.9537C414.629 31.3107 419.49 27.3462 424.983 22.067C428.226 19.0038 430.198 17.4045 430.905 17.2825C431.523 17.1741 432.081 17.3503 432.57 17.8111C433.06 18.2719 433.366 18.8276 433.481 19.4918C433.597 20.1559 433.515 20.8471 433.237 21.579C430.823 26.7701 427.152 31.6698 422.223 36.2781C417.294 40.8864 411.393 44.2681 404.526 46.4231C403.568 46.6807 402.772 46.8704 402.126 46.9788C401.487 47.0941 400.984 47.2364 400.631 47.4126C400.277 47.5888 399.971 47.9276 399.713 48.4223C399.461 48.9238 399.135 49.7303 398.734 50.8417C397.476 54.0607 395.253 57.3543 392.071 60.7292C389.107 63.833 385.681 66.0897 381.778 67.5061C380.67 67.9262 379.535 68.238 378.386 68.4345H378.393ZM375.667 61.5424C377.332 61.3188 377.278 61.6373 381.466 58.4589C384.246 56.3039 386.184 54.0201 387.265 51.6143C388.353 49.2152 388.692 47.1415 388.298 45.4134C387.87 43.5701 386.619 42.3706 384.539 41.8149L383.505 42.933C382.179 44.302 379.936 47.1008 376.775 51.3228C372.689 57.2797 373.804 59.0553 374.178 60.6682C374.341 61.3594 374.83 61.6508 375.667 61.5424Z" fill="white"/>
<path d="M270.017 86.9761C267.101 87.4844 264.776 86.434 263.035 83.8248C262.165 82.3746 261.553 80.6736 261.213 78.7218C260.751 76.0924 260.547 73.4223 260.601 70.698C260.594 68.7733 251.641 79.0132 249.241 81.0328C246.154 83.6283 243.72 85.5258 241.939 86.7457C240.158 87.9588 238.581 88.6907 237.228 88.9278C236.147 89.1176 235.046 89.0431 233.917 88.7042C232.68 88.467 231.925 87.5589 231.639 85.9596C231.286 83.9672 233.278 72.094 234.359 67.2214C234.916 64.5378 235.487 62.5725 236.065 61.3188C236.65 60.065 237.377 59.367 238.261 59.2112C239.057 59.0688 240.029 59.3128 241.171 59.9363C242.082 60.187 242.619 60.8105 242.796 61.8067C242.939 62.6064 242.877 63.7856 242.619 65.351C242.198 67.3976 240.43 77.2445 240.559 77.9967C240.654 78.5524 240.906 78.7964 241.307 78.7286C241.824 78.6405 242.463 78.2881 243.224 77.685C243.986 77.0818 244.869 76.3228 245.882 75.4012C246.895 74.4863 248.01 73.5307 249.241 72.5345C254.632 68.0618 260.166 57.1645 262.607 56.7376C263.966 56.5004 265.156 56.724 266.183 57.4017C266.863 57.7744 267.393 58.1878 267.76 58.6351C268.127 59.0824 268.392 59.7669 268.556 60.6817C268.793 62.0371 268.902 64.1922 268.889 67.1469C268.861 70.515 269.011 73.097 269.324 74.8929C269.582 76.3703 269.976 77.3665 270.5 77.8883C271.023 78.4101 271.744 78.5931 272.662 78.4304C274.497 78.1119 278.583 75.8146 284.92 71.5451C289.597 68.4277 294.37 65.0664 299.237 61.4679C304.098 57.8693 307.905 54.8604 310.652 52.4478C313.657 49.8726 315.778 48.4698 317.016 48.2529C317.736 48.1241 318.253 48.2732 318.572 48.6866C318.892 49.1 319.116 49.6693 319.245 50.3876C319.456 51.5804 317.831 53.8777 314.371 57.273C310.91 60.6682 306.512 64.3955 301.175 68.4481C295.838 72.5006 290.297 76.2618 284.566 79.7248C281.187 81.8324 278.339 83.4928 276.02 84.6991C273.702 85.9053 271.703 86.6576 270.024 86.949L270.017 86.9761Z" fill="white"/>
</g>
<defs>
<filter id="filter0_d_1_557" x="0" y="0.640381" width="445.532" height="174.128" filterUnits="userSpaceOnUse" color-interpolation-filters="sRGB">
<feFlood flood-opacity="0" result="BackgroundImageFix"/>
<feColorMatrix in="SourceAlpha" type="matrix" values="0 0 0 0 0 0 0 0 0 0 0 0 0 0 0 0 0 0 127 0" result="hardAlpha"/>
<feOffset/>
<feGaussianBlur stdDeviation="6"/>
<feComposite in2="hardAlpha" operator="out"/>
<feColorMatrix type="matrix" values="0 0 0 0 0.941176 0 0 0 0 0.854902 0 0 0 0 0.0352941 0 0 0 0.35 0"/>
<feBlend mode="normal" in2="BackgroundImageFix" result="effect1_dropShadow_1_557"/>
<feBlend mode="normal" in="SourceGraphic" in2="effect1_dropShadow_1_557" result="shape"/>
</filter>
</defs>
</svg>
