<svg width="374" height="206" viewBox="0 0 374 206" fill="none" xmlns="http://www.w3.org/2000/svg">
<g filter="url(#filter0_d_1_7)">
<path d="M50.2402 89.7097C38.8634 90.6034 27.497 91.5771 16.1341 92.6239C13.5647 65.3698 10.9953 38.1192 8.42932 10.8651C19.4386 9.82187 30.4547 8.87248 41.4778 8.01698C49.935 7.35971 56.3325 9.07418 60.6253 13.0456C64.3528 16.4954 66.4333 21.5032 66.8598 28.055C67.0921 31.6613 66.5338 35.1459 65.1156 38.2861C63.7078 41.4021 61.5095 43.7078 58.7494 45.1371C63.4755 45.3005 67.3972 46.7124 70.5006 49.2859C74.4605 52.5722 76.6589 57.4548 77.0507 63.9266C77.4564 70.6454 75.6013 76.1435 71.9813 80.4035C66.4853 86.865 58.1495 88.3569 50.2471 89.7027L50.2402 89.7097Z" fill="url(#paint0_linear_1_7)"/>
<path d="M171.12 43.4642C171.286 55.0447 166.508 66.1974 158.449 74.3002C150.138 82.6569 137.887 86.7014 126.347 87.3308C114.596 87.9742 102.432 84.1071 93.4134 76.5676C84.5713 69.1742 79.2695 58.251 78.6315 46.6879C78.3195 41.0542 79.0823 35.4379 81.0068 29.898C82.9347 24.3617 85.9999 19.4582 90.2164 15.212C98.9614 6.62234 111.205 1.74672 123.372 1.56588C135.307 1.38852 148.338 4.40014 157.388 12.8681C161.886 16.8117 165.284 21.4891 167.59 26.8794C169.896 32.2698 171.043 37.82 171.123 43.4607L171.12 43.4642Z" fill="url(#paint1_linear_1_7)"/>
<path d="M267.092 44.8972C266.672 56.4707 261.339 67.3695 252.882 75.0516C244.162 82.9736 231.724 86.3956 220.163 86.4373C208.398 86.4825 196.446 82.0068 187.822 74.0187C179.365 66.1837 174.625 55.0101 174.569 43.4296C174.542 37.7889 175.585 32.2143 177.787 26.7823C179.989 21.3503 183.297 16.6103 187.721 12.5797C196.886 4.44556 209.355 0.195914 221.515 0.630616C233.447 1.05836 246.308 4.72725 254.918 13.6439C259.21 17.81 262.369 22.6544 264.401 28.1525C266.433 33.6506 267.297 39.2565 267.095 44.8937L267.092 44.8972Z" fill="url(#paint2_linear_1_7)"/>
<path d="M284.173 86.7157C275.716 86.288 271.489 86.1002 263.028 85.7698C268.75 58.5853 274.644 31.439 280.716 4.33099C289.496 4.74135 293.882 4.9674 302.658 5.47861C307.558 20.3871 312.357 35.3235 317.062 50.2946C324.011 36.0886 331.102 21.9521 338.307 7.87468C347.177 8.55282 351.609 8.91797 360.471 9.70043C362.33 37.3336 364.029 64.9771 365.572 92.6277C357.087 91.8243 352.843 91.4453 344.351 90.7393C344.07 84.4344 343.782 78.1295 343.488 71.8211C343.113 63.8643 332.468 61.5517 328.831 68.6321C325.387 75.3335 321.969 82.0453 318.574 88.7745C315.186 88.5415 313.491 88.4267 310.099 88.2076C307.741 81.0681 305.363 73.9424 302.956 66.8203C300.415 59.2947 289.579 59.9659 287.994 67.7523C286.711 74.0711 285.435 80.3934 284.173 86.7192V86.7157Z" fill="url(#paint3_linear_1_7)"/>
</g>
<g filter="url(#filter1_d_1_7)">
<path d="M51.2146 200.405C50.7812 200.482 45.3476 201.563 39.7823 197.672C36.6442 195.478 34.2586 191.371 32.3446 185.726C31.9389 184.387 31.6025 182.951 31.3321 181.418C30.5554 176.98 30.4132 171.221 30.9056 164.137C31.3979 157.053 32.7849 148.825 35.07 139.446C37.3551 130.071 40.2816 120.935 43.8497 112.036C47.4177 103.136 51.3845 95.3397 55.75 88.6418C60.1156 81.9439 64.6753 77.1935 69.4292 74.3975C71.0763 73.4203 72.7303 72.7839 74.3947 72.4917C77.453 71.9527 80.4974 72.5856 83.5211 74.394C85.397 75.712 86.5933 77.8403 87.1064 80.7754C87.2451 81.5753 87.3561 83.2758 87.4324 85.8771C87.5087 88.4749 86.8637 92.4324 85.4975 97.7462C84.1313 103.06 82.3629 108.158 80.2027 113.041C78.039 117.927 75.8753 121.815 73.7081 124.705C72.0403 126.923 70.5735 128.144 69.3079 128.367C68.9091 128.436 68.5242 128.401 68.1567 128.259C68.0735 128.172 68.018 128.061 67.9972 127.928C67.8273 126.962 68.6872 124.628 70.577 120.924C71.1179 119.902 71.9536 117.829 73.0874 114.707C74.2213 111.587 75.4037 107.963 76.6381 103.846C77.8725 99.725 78.8816 95.6979 79.6652 91.7612C80.4489 87.8246 80.7644 84.5278 80.6084 81.8744L80.4662 80.765C80.0397 78.3307 78.8296 77.2874 76.8358 77.6386C73.3752 78.2472 69.932 80.5563 66.5027 84.5625C63.0734 88.5688 59.8347 93.5835 56.7938 99.6032C53.7493 105.623 51.1279 111.559 48.9295 117.412C46.7311 123.265 45.1292 128.019 44.1201 131.667C39.921 146.262 37.5562 159.008 37.0257 169.893C36.8592 174.049 37.0603 177.742 37.629 180.979C37.8579 182.28 38.3606 184.231 39.1408 186.825C39.921 189.423 41.9321 191.364 45.1742 192.65C46.7727 193.158 48.4857 193.252 50.313 192.932C54.9352 192.118 75.3482 183.396 89.8353 162.482C92.5989 158.493 93.9443 156.087 94.9083 155.916C95.1094 155.881 95.3417 155.986 95.6052 156.229C95.8722 156.473 96.1149 157.231 96.3369 158.5C84.7312 184.102 64.1691 194.427 61.4228 196.184C57.9068 198.42 54.5018 199.828 51.2076 200.405H51.2146Z" fill="white"/>
<path d="M110.63 129.048C112.319 127.532 113.827 126.656 115.159 126.419C116.986 126.099 118.165 127.438 118.692 130.439C118.838 131.274 118.942 132.251 119 133.378C119.056 134.675 119.17 135.823 119.347 136.824C119.763 139.192 120.523 140.844 121.629 141.787C122.735 142.726 124.32 143.014 126.383 142.653L126.733 142.59C132.288 141.234 138.089 138.333 144.133 133.882C150.177 129.431 155.156 124.972 159.071 120.5L160.603 118.681C162.108 116.904 163.27 115.607 164.088 114.793C164.906 113.98 165.728 113.5 166.56 113.354C167.091 113.26 167.694 113.274 168.367 113.395C168.901 113.507 169.21 113.799 169.289 114.265C169.373 114.734 169.216 115.325 168.832 116.049C162.968 124.475 156.453 131.517 149.285 137.179C142.118 142.844 135.017 146.634 127.981 148.561C127.194 148.766 126.435 148.937 125.703 149.065C123.241 149.496 120.991 149.413 118.948 148.811C116.906 148.206 115.308 146.958 114.153 145.063C113.113 143.216 112.222 140.486 111.486 136.869" fill="white"/>
<path d="M205.175 136.588L202.629 137.036C201.066 137.311 199.141 136.584 196.849 134.856C195.108 133.339 194.013 131.281 193.555 128.679C193.444 128.047 193.337 126.648 193.233 124.482C193.129 122.319 193.975 119.22 195.771 115.19C197.234 111.806 198.715 109.977 200.213 109.716C201.211 109.542 202.345 109.855 203.618 110.665C204.606 111.215 205.136 111.705 205.213 112.136C205.272 112.47 205.209 112.947 205.025 113.562C204.842 114.178 204.436 115.231 203.805 116.716C202.976 118.65 202.401 120.747 202.078 123.004C201.683 125.65 201.634 127.81 201.926 129.476C202.147 130.745 202.591 131.319 203.257 131.201C205.483 130.808 208.597 129.239 212.588 126.492C216.583 123.745 220.716 120.531 224.991 116.856C229.267 113.183 232.966 109.779 236.087 106.652C238.535 104.194 240.342 102.862 241.507 102.656C242.672 102.451 243.577 102.827 244.225 103.776C244.315 103.898 244.374 104.044 244.402 104.207C244.575 105.209 243.705 106.979 241.784 109.514C239.863 112.053 237.027 115.096 233.278 118.647C229.527 122.194 225.414 125.668 220.934 129.069C219.117 130.456 216.78 131.924 213.913 133.479C211.048 135.033 208.136 136.069 205.175 136.588ZM205.015 105.411C203.784 105.626 202.831 105.178 202.154 104.058C202.092 103.898 202.04 103.7 201.998 103.467C201.86 102.667 202.009 101.512 202.446 100.006C202.886 98.5042 203.562 96.9844 204.478 95.4473C205.393 93.9102 206.249 93.0721 207.047 92.933C208.444 92.6861 209.682 92.7522 210.761 93.1312C211.836 93.5068 212.442 94.0806 212.578 94.8492C212.637 95.183 212.463 95.9099 212.057 97.0296C211.652 98.1494 211.146 99.3144 210.535 100.521C208.85 103.432 207.009 105.063 205.015 105.414V105.411Z" fill="white"/>
<path d="M239.138 132.314C237.81 132.547 236.624 132.157 235.59 131.135C235.216 130.752 234.952 130.13 234.8 129.26C234.287 126.325 235.098 121.06 237.231 113.462C238.423 109.299 239.436 106.465 240.268 104.959C241.1 103.453 242.186 102.587 243.514 102.351C245.109 102.069 246.055 102.778 246.354 104.479C246.621 106.013 246.357 108.426 245.563 111.709C244.765 114.995 244.401 116.821 244.464 117.19L244.512 117.183C244.644 117.158 245.188 116.738 246.142 115.917C247.096 115.096 248.229 114.035 249.547 112.738C253.739 108.492 257.335 106.106 260.327 105.581C264.152 104.907 267.065 107.251 269.066 112.606C269.946 115.1 270.73 116.87 271.41 117.916C272.089 118.967 272.98 119.394 274.076 119.203C275.206 119.005 276.777 118.177 278.785 116.724C281.937 114.554 285.865 111.191 290.571 106.632C295.276 102.072 298.955 98.0801 301.615 94.6546C303.362 92.6967 305.002 91.5839 306.532 91.3127C307.763 91.097 308.498 91.4831 308.74 92.4707C308.893 93.3401 308.397 94.526 307.256 96.0318C301.656 104.204 295.831 110.878 289.777 116.052C283.723 121.227 278.268 124.242 273.414 125.094C271.784 125.379 270.258 125.39 268.844 125.126C266.763 124.597 265.196 123.286 264.142 121.182C263.088 119.081 262.3 117.026 261.777 115.023C261.458 113.98 261.163 113.128 260.893 112.47C260.622 111.813 260.338 111.511 260.04 111.563C258.445 111.844 254.648 116.018 248.656 124.089C244.873 129.121 241.704 131.862 239.141 132.314H239.138Z" fill="white"/>
<path d="M317.95 91.6428C320.672 93.1973 322.049 96.3967 321.248 99.4361C321.217 99.5544 321.189 99.6413 321.172 99.6935C321.029 100.093 320.863 100.73 320.672 101.603C320.041 104.138 318.696 106.826 316.64 109.664C314.722 112.279 312.382 114.299 309.604 115.729C308.814 116.15 308.002 116.49 307.163 116.751C305.97 117.123 304.763 117.248 303.543 117.13C302.322 117.015 301.109 116.539 299.899 115.711C298.688 114.884 297.867 113.771 297.437 112.38C296.317 108.756 297.638 103.244 301.397 95.8368C302.582 93.3781 303.768 91.0933 304.958 88.9894C307.055 85.2544 308.526 83.2548 309.365 82.9974C309.753 82.8757 310.204 82.9592 310.714 83.2443C311.227 83.5295 311.938 84.0059 312.853 84.6806C313.169 84.9032 313.37 85.157 313.46 85.4491C313.63 85.9986 313.547 86.6454 313.21 87.3896C313.051 87.9009 312.964 88.3703 312.957 88.7981L317.954 91.6532L317.95 91.6428ZM306.154 111.197C307.094 110.905 308.623 109.399 310.734 106.673C312.132 104.826 313.03 102.952 313.425 101.039C313.821 99.1336 313.821 97.5338 313.425 96.2437C313.002 94.87 312.163 94.0528 310.908 93.7815L310.419 94.7066C309.788 95.8437 308.758 98.139 307.34 101.589C305.554 106.423 304.843 109.441 305.214 110.641C305.374 111.156 305.686 111.34 306.157 111.194L306.154 111.197Z" fill="white"/>
<path d="M112.922 129.024C115.637 130.596 116.993 133.799 116.174 136.835C116.143 136.953 116.115 137.04 116.098 137.092C115.952 137.492 115.782 138.125 115.588 138.998C114.943 141.529 113.584 144.211 111.51 147.035C109.579 149.639 107.225 151.646 104.44 153.061C103.65 153.479 102.835 153.816 101.992 154.07C100.796 154.435 99.5893 154.553 98.3687 154.428C97.1482 154.306 95.938 153.826 94.7314 152.988C93.5247 152.154 92.7098 151.037 92.2902 149.643C91.1911 146.016 92.5434 140.507 96.3403 133.121C102.814 124.221 112.918 129.02 112.918 129.02L112.922 129.024ZM101.018 148.513C101.961 148.227 103.497 146.729 105.623 144.013C107.031 142.173 107.939 140.302 108.345 138.396C108.75 136.49 108.757 134.891 108.369 133.601C108.098 132.707 107.648 132.043 107.024 131.615C106.465 131.232 105.692 131.451 105.373 132.05C104.735 133.183 103.695 135.471 102.256 138.914C100.442 143.738 99.7141 146.753 100.078 147.956C100.234 148.471 100.546 148.659 101.018 148.516V148.513Z" fill="white"/>
<path d="M164.421 108.228C155.031 110.345 148.02 123.181 154.757 131.11C158.013 134.588 165.798 137.62 167.365 139.794C174.772 150.042 161.862 153.27 160.396 153.631C155.305 154.887 152.49 154.897 150.756 154.341C150.409 154.23 149.757 152.953 150.635 151.986C165.028 136.087 184.186 127.487 203.143 116.184C205.573 116.111 208.34 105.16 201.142 108.864C189.81 114.689 131.851 148.491 142.372 159.043C149.743 166.436 170.788 160.98 175.767 151.649C179.786 144.12 179.682 137.238 163.079 127.32C160.805 125.96 160.517 123.901 160.51 123.456C160.468 120.949 161.807 116.939 166.855 115.701C172.462 114.324 170.85 108.235 165.077 108.123L164.421 108.231V108.228Z" fill="white"/>
</g>
<g clip-path="url(#clip0_1_7)" filter="url(#filter2_d_1_7)">
<path d="M101.762 56.9357C101.762 49.9036 101.762 42.8715 101.762 35.8394C101.828 35.869 101.901 35.8874 101.96 35.928C108.122 40.0742 114.285 44.2222 120.447 48.3684C123.133 50.1767 125.916 50.1896 128.591 48.3924C134.682 44.2997 140.77 40.2015 146.857 36.1051C146.987 36.0184 147.121 35.9354 147.309 35.8136V36.1789C147.309 42.8807 147.311 49.5825 147.303 56.2843C147.303 56.6533 147.259 57.0335 147.17 57.3914C146.678 59.3621 145.025 60.5929 142.884 60.5947C136.732 60.5984 130.579 60.5947 124.428 60.5947C118.276 60.5947 112.271 60.5929 106.193 60.5965C104.984 60.5965 103.924 60.2386 103.037 59.3916C102.331 58.7181 101.98 57.8601 101.762 56.932V56.9357Z" fill="white"/>
<path d="M101.762 29.8241C101.836 29.5676 101.9 29.3093 101.984 29.0565C102.56 27.3312 104.105 26.2038 105.972 26.165C106.802 26.1466 107.632 26.1614 108.462 26.1614C119.922 26.1614 131.382 26.1632 142.842 26.1577C144.169 26.1577 145.319 26.5562 146.221 27.5674C147.921 29.4716 147.616 32.3188 145.515 33.7599C142.747 35.6605 139.949 37.5149 137.164 39.3896C133.849 41.6205 130.533 43.8513 127.216 46.0822C125.309 47.3646 123.766 47.3646 121.862 46.0822C116.02 42.1519 110.187 38.205 104.324 34.3042C103.074 33.4721 102.071 32.5273 101.762 30.9921C101.762 30.6028 101.762 30.2134 101.762 29.8259V29.8241Z" fill="white"/>
</g>
<defs>
<filter id="filter0_d_1_7" x="0.429321" y="0.600281" width="373.143" height="108.027" filterUnits="userSpaceOnUse" color-interpolation-filters="sRGB">
<feFlood flood-opacity="0" result="BackgroundImageFix"/>
<feColorMatrix in="SourceAlpha" type="matrix" values="0 0 0 0 0 0 0 0 0 0 0 0 0 0 0 0 0 0 127 0" result="hardAlpha"/>
<feOffset dy="8"/>
<feGaussianBlur stdDeviation="4"/>
<feColorMatrix type="matrix" values="0 0 0 0 0.250358 0 0 0 0 0.0622917 0 0 0 0 0.65 0 0 0 0.65 0"/>
<feBlend mode="normal" in2="BackgroundImageFix" result="effect1_dropShadow_1_7"/>
<feBlend mode="normal" in="SourceGraphic" in2="effect1_dropShadow_1_7" result="shape"/>
</filter>
<filter id="filter1_d_1_7" x="25.619" y="67.3058" width="300.855" height="138.294" filterUnits="userSpaceOnUse" color-interpolation-filters="sRGB">
<feFlood flood-opacity="0" result="BackgroundImageFix"/>
<feColorMatrix in="SourceAlpha" type="matrix" values="0 0 0 0 0 0 0 0 0 0 0 0 0 0 0 0 0 0 127 0" result="hardAlpha"/>
<feOffset/>
<feGaussianBlur stdDeviation="2.5"/>
<feColorMatrix type="matrix" values="0 0 0 0 0.976471 0 0 0 0 0.937255 0 0 0 0 0.576471 0 0 0 0.75 0"/>
<feBlend mode="normal" in2="BackgroundImageFix" result="effect1_dropShadow_1_7"/>
<feBlend mode="normal" in="SourceGraphic" in2="effect1_dropShadow_1_7" result="shape"/>
</filter>
<filter id="filter2_d_1_7" x="87.7625" y="17.1558" width="73.5555" height="62.4445" filterUnits="userSpaceOnUse" color-interpolation-filters="sRGB">
<feFlood flood-opacity="0" result="BackgroundImageFix"/>
<feColorMatrix in="SourceAlpha" type="matrix" values="0 0 0 0 0 0 0 0 0 0 0 0 0 0 0 0 0 0 127 0" result="hardAlpha"/>
<feOffset dy="5"/>
<feGaussianBlur stdDeviation="7"/>
<feComposite in2="hardAlpha" operator="out"/>
<feColorMatrix type="matrix" values="0 0 0 0 0.0627451 0 0 0 0 0.00784314 0 0 0 0 0.176471 0 0 0 0.5 0"/>
<feBlend mode="normal" in2="BackgroundImageFix" result="effect1_dropShadow_1_7"/>
<feBlend mode="normal" in="SourceGraphic" in2="effect1_dropShadow_1_7" result="shape"/>
</filter>
<linearGradient id="paint0_linear_1_7" x1="39.5638" y1="87.2753" x2="44.5338" y2="12.3172" gradientUnits="userSpaceOnUse">
<stop stop-color="#F9FF00"/>
<stop offset="0.19" stop-color="#F6DF00"/>
<stop offset="0.57" stop-color="#F2A700"/>
<stop offset="0.85" stop-color="#EF8400"/>
<stop offset="1" stop-color="#EF7700"/>
</linearGradient>
<linearGradient id="paint1_linear_1_7" x1="121.642" y1="92.7177" x2="126.612" y2="17.7596" gradientUnits="userSpaceOnUse">
<stop stop-color="#F9FF00"/>
<stop offset="0.19" stop-color="#F6DF00"/>
<stop offset="0.57" stop-color="#F2A700"/>
<stop offset="0.85" stop-color="#EF8400"/>
<stop offset="1" stop-color="#EF7700"/>
</linearGradient>
<linearGradient id="paint2_linear_1_7" x1="217.167" y1="99.0506" x2="222.137" y2="24.096" gradientUnits="userSpaceOnUse">
<stop stop-color="#F9FF00"/>
<stop offset="0.19" stop-color="#F6DF00"/>
<stop offset="0.57" stop-color="#F2A700"/>
<stop offset="0.85" stop-color="#EF8400"/>
<stop offset="1" stop-color="#EF7700"/>
</linearGradient>
<linearGradient id="paint3_linear_1_7" x1="313.23" y1="105.422" x2="318.2" y2="30.4637" gradientUnits="userSpaceOnUse">
<stop stop-color="#F9FF00"/>
<stop offset="0.19" stop-color="#F6DF00"/>
<stop offset="0.57" stop-color="#F2A700"/>
<stop offset="0.85" stop-color="#EF8400"/>
<stop offset="1" stop-color="#EF7700"/>
</linearGradient>
<clipPath id="clip0_1_7">
<rect width="45.5556" height="34.4444" fill="white" transform="translate(101.762 26.1558)"/>
</clipPath>
</defs>
</svg>
