<svg width="463" height="93" viewBox="0 0 463 93" fill="none" xmlns="http://www.w3.org/2000/svg">
<path d="M138.952 1.648V15.592H152.952V1.648H162.696V39H152.952V23.88H138.952V39H129.264V1.648H138.952ZM210.089 20.352C210.089 25.28 208.185 30.488 204.209 34.296C200.401 37.936 195.025 39.84 189.481 39.84C183.937 39.84 178.561 37.936 174.753 34.296C170.777 30.488 168.873 25.28 168.873 20.352C168.873 15.368 170.777 10.104 174.753 6.352C178.561 2.712 183.937 0.807998 189.481 0.807998C195.025 0.807998 200.401 2.712 204.209 6.352C208.185 10.104 210.089 15.368 210.089 20.352ZM189.481 10.216C186.793 10.216 183.937 11.168 181.921 13.184C179.905 15.144 178.953 17.888 178.953 20.52C178.953 23.824 180.521 26.12 181.921 27.464C183.713 29.2 186.233 30.432 189.481 30.432C192.785 30.432 195.249 29.256 196.985 27.52C198.721 25.784 200.009 23.208 200.009 20.352C200.009 17.44 198.721 14.864 196.985 13.184C194.913 11.224 192.057 10.216 189.481 10.216ZM231.84 39H216.272V1.648H230.72C233.408 1.648 236.6 2.04 238.896 4.56C240.184 5.96 241.192 8.256 241.192 11.56C241.192 13.184 240.912 14.584 240.128 16.152C239.344 17.608 238.504 18.448 237.104 19.064C239.064 19.288 241.024 20.184 242.2 21.304C243.712 22.76 244.72 25.168 244.72 28.136C244.72 31.664 243.376 34.072 241.976 35.472C239.96 37.544 236.432 39 231.84 39ZM225.96 9.096V16.376H227.752C228.76 16.376 230.44 16.264 231.448 15.2C232.064 14.584 232.344 13.576 232.344 12.736C232.344 11.784 232.008 10.832 231.448 10.216C230.832 9.6 229.656 9.096 227.752 9.096H225.96ZM225.96 23.6V31.44H228.144C230.832 31.44 233.072 31.16 234.136 29.928C234.584 29.424 234.92 28.584 234.92 27.52C234.92 26.344 234.528 25.392 233.968 24.832C232.792 23.656 230.384 23.6 227.976 23.6H225.96ZM282.529 39V1.648H292.273V39H282.529ZM250.889 39V1.648H260.633V16.208H265.337C268.305 16.208 273.177 16.432 276.481 19.68C279.057 22.2 279.449 25.392 279.449 27.576C279.449 30.096 279.001 33.008 276.649 35.416C273.457 38.664 268.529 39 264.777 39H250.889ZM260.633 31.496H264.385C265.449 31.496 267.465 31.496 268.585 30.376C269.201 29.76 269.593 28.752 269.593 27.576C269.593 26.176 269.089 25.336 268.529 24.832C267.465 23.824 265.785 23.712 264.385 23.712H260.633V31.496ZM321.332 1.648V9.88H309.796V16.096H320.716V24.328H309.796V30.768H321.332V39H300.108V1.648H321.332ZM15.5778 91H0.00984377V53.648H14.4578C17.1458 53.648 20.3378 54.04 22.6338 56.56C23.9218 57.96 24.9298 60.256 24.9298 63.56C24.9298 65.184 24.6498 66.584 23.8658 68.152C23.0818 69.608 22.2418 70.448 20.8418 71.064C22.8018 71.288 24.7618 72.184 25.9378 73.304C27.4498 74.76 28.4578 77.168 28.4578 80.136C28.4578 83.664 27.1138 86.072 25.7138 87.472C23.6978 89.544 20.1698 91 15.5778 91ZM9.69784 61.096V68.376H11.4898C12.4978 68.376 14.1778 68.264 15.1858 67.2C15.8018 66.584 16.0818 65.576 16.0818 64.736C16.0818 63.784 15.7458 62.832 15.1858 62.216C14.5698 61.6 13.3938 61.096 11.4898 61.096H9.69784ZM9.69784 75.6V83.44H11.8818C14.5698 83.44 16.8098 83.16 17.8738 81.928C18.3218 81.424 18.6578 80.584 18.6578 79.52C18.6578 78.344 18.2658 77.392 17.7058 76.832C16.5298 75.656 14.1218 75.6 11.7138 75.6H9.69784ZM74.163 72.352C74.163 77.28 72.259 82.488 68.283 86.296C64.475 89.936 59.099 91.84 53.555 91.84C48.011 91.84 42.635 89.936 38.827 86.296C34.851 82.488 32.947 77.28 32.947 72.352C32.947 67.368 34.851 62.104 38.827 58.352C42.635 54.712 48.011 52.808 53.555 52.808C59.099 52.808 64.475 54.712 68.283 58.352C72.259 62.104 74.163 67.368 74.163 72.352ZM53.555 62.216C50.867 62.216 48.011 63.168 45.995 65.184C43.979 67.144 43.027 69.888 43.027 72.52C43.027 75.824 44.595 78.12 45.995 79.464C47.787 81.2 50.307 82.432 53.555 82.432C56.859 82.432 59.323 81.256 61.059 79.52C62.795 77.784 64.083 75.208 64.083 72.352C64.083 69.44 62.795 66.864 61.059 65.184C58.987 63.224 56.131 62.216 53.555 62.216ZM82.3399 63.952L78.5879 56.84C80.3239 55.664 82.0039 54.88 83.7399 54.208C86.4839 53.2 88.8919 52.808 91.6359 52.808C97.0119 52.808 99.9799 54.544 101.66 56.168C103.732 58.128 104.46 60.48 104.46 63.224C104.46 65.24 104.012 66.92 102.836 68.6C101.828 70.056 100.652 70.952 99.3639 71.568V71.736C100.82 72.184 102.388 73.024 103.508 74.088C104.684 75.208 106.196 77.224 106.196 80.36C106.196 84.056 104.404 87.304 101.548 89.264C98.2439 91.56 93.8759 91.84 91.0199 91.84C87.8839 91.84 84.9719 91.448 82.0039 90.216C79.7079 89.264 77.5239 87.808 75.8439 86.296L80.7719 79.24C81.9479 80.584 83.3479 81.648 84.6919 82.376C86.4279 83.272 87.9959 83.608 89.7319 83.608C91.0759 83.608 92.7559 83.328 93.8199 82.656C94.9399 81.984 95.5559 80.808 95.5559 79.576C95.5559 78.456 94.9399 77.448 93.8759 76.776C93.2039 76.328 91.9159 75.88 89.2839 75.88H85.6439V68.376H88.0519C89.8999 68.376 92.5879 68.096 93.8759 66.808C94.5479 66.136 94.8279 65.24 94.8279 64.456C94.8279 63.392 94.2119 62.44 93.3719 61.824C92.4199 61.152 91.0759 60.872 89.7879 60.872C89.0599 60.872 87.3239 60.928 85.4199 61.88C84.3559 62.384 83.1239 63.28 82.3399 63.952ZM120.29 91H110.658L116.986 53.648H126.562L134.122 73.584L142.13 53.648H151.818L157.418 91H147.73L144.986 69.496L135.97 91H132.106L123.482 69.496L120.29 91ZM203.116 72.352C203.116 77.28 201.212 82.488 197.236 86.296C193.428 89.936 188.052 91.84 182.508 91.84C176.964 91.84 171.588 89.936 167.78 86.296C163.804 82.488 161.9 77.28 161.9 72.352C161.9 67.368 163.804 62.104 167.78 58.352C171.588 54.712 176.964 52.808 182.508 52.808C188.052 52.808 193.428 54.712 197.236 58.352C201.212 62.104 203.116 67.368 203.116 72.352ZM182.508 62.216C179.82 62.216 176.964 63.168 174.948 65.184C172.932 67.144 171.98 69.888 171.98 72.52C171.98 75.824 173.548 78.12 174.948 79.464C176.74 81.2 179.26 82.432 182.508 82.432C185.812 82.432 188.276 81.256 190.012 79.52C191.748 77.784 193.036 75.208 193.036 72.352C193.036 69.44 191.748 66.864 190.012 65.184C187.94 63.224 185.084 62.216 182.508 62.216ZM225.59 91V74.592L215.51 91H203.302L216.91 71.96L204.422 53.648H215.622L225.59 69.888V53.648H235.222V69.888L245.19 53.648H256.39L243.902 71.96L257.51 91H245.302L235.222 74.592V91H225.59ZM271.159 53.648V67.592H285.159V53.648H294.903V91H285.159V75.88H271.159V91H261.471V53.648H271.159ZM342.296 72.352C342.296 77.28 340.392 82.488 336.416 86.296C332.608 89.936 327.232 91.84 321.688 91.84C316.144 91.84 310.768 89.936 306.96 86.296C302.984 82.488 301.08 77.28 301.08 72.352C301.08 67.368 302.984 62.104 306.96 58.352C310.768 54.712 316.144 52.808 321.688 52.808C327.232 52.808 332.608 54.712 336.416 58.352C340.392 62.104 342.296 67.368 342.296 72.352ZM321.688 62.216C319 62.216 316.144 63.168 314.128 65.184C312.112 67.144 311.16 69.888 311.16 72.52C311.16 75.824 312.728 78.12 314.128 79.464C315.92 81.2 318.44 82.432 321.688 82.432C324.992 82.432 327.456 81.256 329.192 79.52C330.928 77.784 332.216 75.208 332.216 72.352C332.216 69.44 330.928 66.864 329.192 65.184C327.12 63.224 324.264 62.216 321.688 62.216ZM375.303 78.512V89.992C371.439 91.392 369.311 91.84 366.903 91.84C360.407 91.84 355.535 89.264 352.455 86.24C348.815 82.6 346.799 77.504 346.799 72.632C346.799 67.312 349.095 62.272 352.455 58.856C355.759 55.496 360.743 53.032 366.567 53.032C368.359 53.032 371.327 53.312 375.303 54.936V66.528C372.167 62.664 368.471 62.44 366.847 62.44C364.047 62.44 361.919 63.28 360.127 64.904C357.831 67.032 356.879 69.944 356.879 72.576C356.879 75.152 357.943 78.008 359.903 79.856C361.527 81.368 364.103 82.432 366.847 82.432C368.303 82.432 371.887 82.264 375.303 78.512ZM404.941 61.88H396.989V91H387.301V61.88H379.349V53.648H404.941V61.88ZM409.236 53.648H418.98V77.168L432.98 53.648H442.892V91H433.148V67.48L419.148 91H409.236V53.648ZM460.992 78.288H451.696V53.648H460.992V78.288ZM456.4 92.064C455.168 92.064 453.656 91.672 452.312 90.328C451.584 89.6 450.576 88.256 450.576 86.24C450.576 84.224 451.584 82.88 452.312 82.152C453.656 80.808 455.168 80.416 456.4 80.416C457.8 80.416 459.312 80.976 460.544 82.208C461.496 83.16 462.168 84.392 462.168 86.24C462.168 88.088 461.496 89.32 460.488 90.328C459.312 91.504 457.856 92.064 456.4 92.064Z" fill="white"/>
</svg>
